PathFileType	4	(X/Y/Z)	RBDS011\RBDS011runT25.trc
DataRate	CameraRate	NumFrames	NumMarkers	Units	OrigDataRate	OrigDataStartFrame	OrigNumFrames
150.000000	150.000000	6	33	mm	150.000000	0	4500
Frame#	Time	L.ASIS			L.Heel.Bottom			L.Heel.Lateral			L.Heel.Top			L.Iliac.Crest			L.MT1			L.MT5			L.PSIS			L.Shank.Bottom.Lateral			L.Shank.Bottom.Medial			L.Shank.Top.Lateral			L.Shank.Top.Medial			L.Thigh.Bottom.Lateral			L.Thigh.Bottom.Medial			L.Thigh.Top.Lateral			L.Thigh.Top.Medial			R.ASIS			R.ASY			R.Heel.Bottom			R.Heel.Lateral			R.Heel.Top			R.Iliac.Crest			R.MT1			R.MT5			R.PSIS			R.Shank.Bottom.Lateral			R.Shank.Bottom.Medial			R.Shank.Top.Lateral			R.Shank.Top.Medial			R.Thigh.Bottom.Lateral			R.Thigh.Bottom.Medial			R.Thigh.Top.Lateral			R.Thigh.Top.Medial			
		X1	Y1	Z1	X2	Y2	Z2	X3	Y3	Z3	X4	Y4	Z4	X5	Y5	Z5	X6	Y6	Z6	X7	Y7	Z7	X8	Y8	Z8	X9	Y9	Z9	X10	Y10	Z10	X11	Y11	Z11	X12	Y12	Z12	X13	Y13	Z13	X14	Y14	Z14	X15	Y15	Z15	X16	Y16	Z16	X17	Y17	Z17	X18	Y18	Z18	X19	Y19	Z19	X20	Y20	Z20	X21	Y21	Z21	X22	Y22	Z22	X23	Y23	Z23	X24	Y24	Z24	X25	Y25	Z25	X26	Y26	Z26	X27	Y27	Z27	X28	Y28	Z28	X29	Y29	Z29	X30	Y30	Z30	X31	Y31	Z31	X32	Y32	Z32	X33	Y33	Z33	

1	0	2220.333164072337	1024.495627538263	925.5693099389981	1621.81927637273	265.9485016237597	1014.815693154074	1642.824866763349	247.6051336335023	975.1876531745777	1667.821416447914	282.7479862211943	1009.759267178763	2184.053228376976	1113.769956258961	898.8865533066189	1753.689958849232	87.7830397971402	1063.969277529164	1721.724899920199	93.74381846730091	952.3554018770662	2063.694115177746	1083.438190013698	1004.373260952661	1754.806294981072	305.5679599649943	950.0730641181262	1730.182958351008	328.4795709723999	994.4684112046252	1795.715517762574	373.7204360088043	938.3156027098214	1772.210414408229	396.5309389740173	981.09259119052	2022.395333258702	664.8952577279506	905.8748933584293	1967.329862810349	684.3336454326454	949.9079549619835	2041.614895331895	772.4210968375647	889.1996736978155	1992.873897661366	790.6805830518944	934.4386674706129	2230.249616626636	1037.354949514697	1167.211480115768	2440.406063850553	155.0472712758085	1108.4476717821	2283.05453895242	47.20246205234643	1093.893550959514	2304.268447812905	66.00490063083829	1137.422098257749	2279.16265335818	97.00900689748021	1102.209733784002	2185.382680891295	1111.92933425978	1206.154684190737	2492.166379676287	127.2712331855769	1049.510544874506	2477.63378750125	92.97906868775074	1161.723964364199	2064.395280110318	1089.689889069367	1106.953649926164	2304.375670858295	197.3553928648937	1156.67844088688	2273.305601283787	203.5321011960732	1115.802186727179	2288.347578461891	277.7860521493064	1178.355424757986	2255.090574520324	279.4237901630805	1136.378754375136	2249.309398237118	659.4049367107684	1222.336514819277	2193.612279455679	640.9155821112745	1178.652385675994	2203.627639009974	758.1611977221032	1235.827372394938	2150.112033785869	740.7528419006015	1197.093219445195	
2	0.006666666666666667	2220.892126862923	1024.038596745737	925.9967682330233	1617.203859913343	277.6847944658867	1015.216662980182	1637.215221358632	258.351692514987	975.6259956870859	1663.783888706865	292.3601373192937	1010.025563429441	2184.149016512882	1113.005467954949	899.1577585158433	1741.720846838206	94.39428740360205	1063.820717881815	1709.523372738978	101.6889528899552	952.7111193813362	2063.789902393911	1082.772466853686	1004.422569912418	1750.704171002054	311.5880315106789	950.0305221070805	1727.096696920579	335.1498255454941	994.6326528703153	1794.116321087537	378.088026021848	938.4898985800529	1771.554197559374	401.6109310677479	981.4050402479537	2026.881836677556	662.3151599639696	906.1988613823214	1970.983188069701	681.3028240043236	949.3557092088657	2045.169896426235	769.9669518124625	889.2206547228826	1995.419975659358	787.9122232865573	933.5048340913343	2230.073143015769	1036.229660059416	1167.615247398986	2444.47769326167	156.2843132895405	1109.020284398054	2289.471481813448	44.85892245066137	1094.527632074122	2309.989593720873	64.32256440395896	1138.027044594888	2284.436818953207	94.658120857539	1102.597671264755	2185.266452533227	1110.164231772275	1206.667948705064	2497.35557007089	129.3875730904245	1050.65500578266	2482.594221404593	95.30460861579138	1162.845053103503	2064.132919804383	1088.496585031694	1107.093281723808	2308.330335880536	196.2955997397045	1157.232539510796	2276.699013893473	201.6853863238946	1116.672147908381	2291.101457023624	276.503099045796	1178.723817027737	2257.384889946925	277.3281212563741	1137.16256036023	2246.619514701981	657.7585506238232	1221.966648908283	2190.824013034439	640.0268141273871	1178.06880698345	2201.726994889654	756.8012768992338	1236.023491653645	2148.229140535134	740.0439408356282	1197.060270212382	
3	0.01333333333333333	2221.441254826779	1023.462331131862	926.4258739433423	1612.783767586411	289.3942388778327	1015.509680356214	1631.857797407985	269.0983468959568	975.9684918612202	1659.924990903866	301.9891938013128	1010.239112249584	2184.18798860883	1112.106772197733	899.4107708999386	1730.020056076693	101.1479483953825	1063.707368552115	1697.719162255865	109.7246551201135	953.035027871635	2063.884820581108	1081.924202254448	1004.452020605242	1746.843392845426	317.6232362962328	949.9870905799538	1724.250002284536	341.8507411521417	994.773337669669	1792.75041296179	382.4244566247252	938.6485311200775	1771.135480493622	406.6739005904593	981.6840780670216	2031.501660018044	659.5605839247713	906.4934315614354	1974.804915770673	678.0540801714778	948.8299530369038	2048.794129966267	767.3400188707416	889.2346653876223	1998.072569734193	784.9296225371457	932.6165616968342	2229.871608475363	1035.063654610769	1168.073240625282	2447.955761647152	157.1009098630888	1109.609579865577	2295.040084849756	42.48689335706549	1095.107343965501	2314.906853324057	62.54922512632247	1138.587366917468	2288.985708658938	92.28429575727762	1102.937006381324	2185.05601953744	1108.293052787149	1207.187727627095	2501.873346955299	130.9488004486713	1051.804435914587	2486.802112973752	97.101496161635	1163.972962149471	2063.860175274278	1087.15143465417	1107.19513029654	2311.715598074585	195.055162939525	1157.769626574405	2279.552187294735	199.7253290942746	1117.510751548419	2293.410546334133	275.0703274443696	1179.087934680126	2259.249977699628	275.1509615899249	1137.924452999666	2244.025674358743	656.0333570648216	1221.557987013412	2188.121611422104	639.0200247491139	1177.475429613115	2199.902632097162	755.3614961284771	1236.134330078156	2146.401719721438	739.2185889448032	1196.986370173631	
4	0.02	2221.980485597752	1022.65221218345	926.8639667961095	1608.739666244626	301.0723475502926	1015.605954386742	1626.976220604382	279.8620800535384	976.1372152912916	1656.408159216573	311.6631401639622	1010.351729582643	2184.129633075016	1110.957514874097	899.6290533463547	1718.812572169318	108.1857486940701	1063.658424252825	1686.642450203717	117.9495931743266	953.301795597655	2063.982428823324	1080.720097949074	1004.438332711486	1743.431610035078	323.6920158823575	949.9409873731529	1721.853091595123	348.6166470051585	994.8680067160183	1791.820662373319	386.7035006719388	938.7762461015079	1771.163295317947	411.7065940306483	981.8973292275981	2036.359469404752	656.4683886361181	906.7354047434792	1978.934493008362	674.3884393453458	948.3642211412791	2052.538677926271	764.3804420110021	889.2401133514261	2000.921758699821	781.5387063289371	931.8278057936586	2229.621548688058	1033.810392744221	1168.630870093774	2450.308603721916	157.1170230074005	1110.212288073373	2298.994017160784	40.07393588634528	1095.580338186626	2318.297018284386	60.61977719319564	1139.057774356385	2292.159089412562	89.87970514169531	1103.17582368408	2184.671424234977	1106.227570730746	1207.719585236399	2505.112508679835	131.4544980775108	1052.951871682158	2489.582475589254	97.90040067670247	1165.103827875552	2063.567503688113	1085.510887359558	1107.226641331449	2314.0301972675	193.4837675749592	1158.261484140641	2281.389556159042	197.566607882356	1118.278089898678	2294.89665633285	273.3665776519331	1179.433072801863	2260.322035430161	272.836872708838	1138.633463946906	2241.647481076891	654.1684986693074	1221.088402561977	2185.610848552073	637.7870007512475	1176.888140753452	2198.247476213503	753.7744542927182	1236.095121870508	2144.698619070908	738.1658583566393	1196.857355661978	
5	0.02666666666666667	2222.511600609966	1021.51151205919	927.3178156244795	1605.238390005763	312.7058617760335	1015.446847404444	1622.764086675587	290.6466561873817	976.0793376290658	1653.385983883048	321.393860133252	1010.327341013657	2183.943940862456	1109.46459437798	899.7999368549062	1708.297472417405	115.6067049453659	1063.689429701702	1676.559131840229	126.4316669867269	953.4915569102446	2064.086755741869	1079.019221756858	1004.362831412712	1740.644545396226	329.7987028662872	949.8887118161721	1720.084330883861	355.4622386866648	994.8973544257248	1791.494242948123	390.8962734574745	938.8585396829851	1771.810382562654	416.6877486660734	982.0172724984394	2041.524272872059	652.9112761453941	906.9048096434282	1983.473558516437	670.1523012086112	947.9889781236999	2056.433575209172	760.963004288428	889.2360454940983	2004.033405016098	777.5881786778292	931.1873876682554	2229.305467457131	1032.42503025818	1169.321713258511	2451.117737546876	156.0335280842433	1110.807452782925	2300.722469447111	37.6311530281234	1095.910381829801	2319.588760345323	58.50669804429656	1139.404236393771	2293.445088426947	87.45812905331783	1103.273331197637	2184.051497645759	1103.901872469781	1208.265916758689	2506.58433076279	130.5023558088167	1054.072848346877	2490.405503998128	97.34277893581442	1166.221585976988	2063.24963257695	1083.459076871089	1107.163195420746	2314.883221824159	191.4682666176418	1158.679363090783	2281.839941845029	195.1496674779516	1118.937384927205	2295.268707954614	271.3006385215169	1179.742652256932	2260.321714694251	270.3491421656706	1139.26075837338	2239.591000831527	652.1148661843765	1220.550391481355	2183.385530794177	636.2387631505188	1176.33257510333	2196.843680790304	751.9834408981833	1235.867068258561	2143.181537200565	736.7930011803819	1196.674562658065	
6	0.03333333333333333	2223.037247409971	1019.963555538377	927.7938759894424	1602.432513371914	324.2717613024782	1015.011863720187	1619.380607657995	301.4405095953028	975.773903126081	1651.000351595513	331.1735864630203	1010.146451938648	2183.616430975327	1107.559102050249	899.9159031429763	1698.64366135749	123.456301169171	1063.797682495578	1667.657649018934	135.2016688238269	953.5898718484472	2064.200225021994	1076.719225283712	1004.21328876662	1738.621245271172	335.930541960204	949.8243127194329	1719.086112451076	362.3781380463352	994.8459558327196	1791.897346940377	394.9706968172791	938.8814162098614	1773.208154590258	421.586128297949	982.0222547634683	2047.023150024342	648.8060007841744	906.9854333781425	1988.478309569339	665.2473167160634	947.7292873548785	2060.484244260252	757.0048694817922	889.2225100633599	2007.444200731251	772.9787843931891	930.7366189513798	2228.912273136562	1030.86207198305	1170.163877818325	2450.103795190109	153.6614155672831	1111.353097931273	2299.812133100878	35.19932000172472	1096.080681514169	2318.401879243405	56.23054556374831	1139.606193147288	2292.504861616406	85.06051095552506	1103.20196308387	2183.159367063897	1101.273230594587	1208.825428723604	2505.949301552028	127.8251613784087	1055.12350893609	2488.9225110552	95.21979387545387	1167.296831667857	2062.904459012388	1080.912411719587	1106.990872264134	2314.023605885267	188.9468785078832	1158.994259894291	2280.663813161746	192.4519701479116	1119.457304232059	2294.347602659574	268.8225272447061	1179.998178920863	2259.077665132815	267.6784113493832	1139.781744226256	2237.944000639297	649.8370581000082	1219.955023782955	2181.524710469331	634.3099867334554	1175.844538383207	2195.757486597768	749.943563505213	1235.444902718753	2141.902346043812	735.0289097943079	1196.457842289097	
